<svg xmlns="http://www.w3.org/2000/svg" viewBox="0 9.470000267028809 321.8500061035156 46.31999969482422" data-asc="0.9052734375" width="321.8500061035156" height="46.31999969482422"><defs/><g fill="#f7d918"><g transform="translate(0, 0)"><path d="M9.50 45.26L0 9.47L4.86 9.47L10.30 32.93Q11.18 36.62 11.82 40.26Q13.18 34.52 13.43 33.64L20.24 9.47L25.95 9.47L31.08 27.59Q33.01 34.33 33.86 40.26Q34.55 36.87 35.64 32.47L41.26 9.47L46.02 9.47L36.21 45.26L31.64 45.26L24.10 17.99Q23.14 14.58 22.97 13.79Q22.41 16.26 21.92 17.99L14.33 45.26L9.50 45.26ZM66.72 36.91L71.26 37.48Q70.19 41.46 67.29 43.65Q64.38 45.85 59.86 45.85Q54.17 45.85 50.84 42.35Q47.51 38.84 47.51 32.52Q47.51 25.98 50.88 22.36Q54.25 18.75 59.62 18.75Q64.82 18.75 68.12 22.29Q71.41 25.83 71.41 32.25Q71.41 32.64 71.39 33.42L52.05 33.42Q52.29 37.70 54.47 39.97Q56.64 42.24 59.89 42.24Q62.30 42.24 64.01 40.97Q65.72 39.70 66.72 36.91M52.29 29.81L66.77 29.81Q66.48 26.54 65.11 24.90Q63.01 22.36 59.67 22.36Q56.64 22.36 54.58 24.39Q52.51 26.42 52.29 29.81ZM93.60 45.26L93.60 41.99Q91.14 45.85 86.35 45.85Q83.25 45.85 80.65 44.14Q78.05 42.43 76.62 39.37Q75.20 36.30 75.20 32.32Q75.20 28.44 76.49 25.28Q77.78 22.12 80.37 20.43Q82.96 18.75 86.16 18.75Q88.50 18.75 90.33 19.74Q92.16 20.73 93.31 22.31L93.31 9.47L97.68 9.47L97.68 45.26L93.60 45.26M79.71 32.32Q79.71 37.30 81.81 39.77Q83.91 42.24 86.77 42.24Q89.65 42.24 91.66 39.88Q93.68 37.52 93.68 32.69Q93.68 27.37 91.63 24.88Q89.58 22.39 86.57 22.39Q83.64 22.39 81.68 24.78Q79.71 27.17 79.71 32.32ZM121.41 45.26L121.41 41.99Q118.95 45.85 114.16 45.85Q111.06 45.85 108.46 44.14Q105.86 42.43 104.43 39.37Q103.00 36.30 103.00 32.32Q103.00 28.44 104.30 25.28Q105.59 22.12 108.18 20.43Q110.77 18.75 113.96 18.75Q116.31 18.75 118.14 19.74Q119.97 20.73 121.12 22.31L121.12 9.47L125.49 9.47L125.49 45.26L121.41 45.26M107.52 32.32Q107.52 37.30 109.62 39.77Q111.72 42.24 114.58 42.24Q117.46 42.24 119.47 39.88Q121.48 37.52 121.48 32.69Q121.48 27.37 119.43 24.88Q117.38 22.39 114.38 22.39Q111.45 22.39 109.48 24.78Q107.52 27.17 107.52 32.32ZM132.42 14.53L132.42 9.47L136.82 9.47L136.82 14.53L132.42 14.53M132.42 45.26L132.42 19.34L136.82 19.34L136.82 45.26L132.42 45.26ZM143.51 45.26L143.51 19.34L147.46 19.34L147.46 23.02Q150.32 18.75 155.71 18.75Q158.06 18.75 160.02 19.59Q161.99 20.43 162.96 21.80Q163.94 23.17 164.33 25.05Q164.58 26.27 164.58 29.32L164.58 45.26L160.18 45.26L160.18 29.49Q160.18 26.81 159.67 25.48Q159.16 24.15 157.85 23.35Q156.54 22.56 154.79 22.56Q151.98 22.56 149.94 24.34Q147.90 26.12 147.90 31.10L147.90 45.26L143.51 45.26ZM170.51 47.41L174.78 48.05Q175.05 50.02 176.27 50.93Q177.91 52.15 180.74 52.15Q183.79 52.15 185.45 50.93Q187.11 49.71 187.70 47.51Q188.04 46.17 188.01 41.87Q185.13 45.26 180.83 45.26Q175.49 45.26 172.56 41.41Q169.63 37.55 169.63 32.15Q169.63 28.44 170.97 25.31Q172.31 22.17 174.87 20.46Q177.42 18.75 180.86 18.75Q185.45 18.75 188.43 22.46L188.43 19.34L192.48 19.34L192.48 41.75Q192.48 47.80 191.25 50.33Q190.01 52.86 187.34 54.32Q184.67 55.79 180.76 55.79Q176.12 55.79 173.27 53.70Q170.41 51.61 170.51 47.41M174.15 31.84Q174.15 36.94 176.17 39.28Q178.20 41.63 181.25 41.63Q184.28 41.63 186.33 39.29Q188.38 36.96 188.38 31.98Q188.38 27.22 186.27 24.80Q184.16 22.39 181.18 22.39Q178.25 22.39 176.20 24.77Q174.15 27.15 174.15 31.84ZM199.49 45.26L199.49 9.47L212.92 9.47Q217.02 9.47 219.49 10.56Q221.97 11.65 223.38 13.90Q224.78 16.16 224.78 18.63Q224.78 20.92 223.54 22.95Q222.29 24.98 219.78 26.22Q223.02 27.17 224.77 29.47Q226.51 31.76 226.51 34.89Q226.51 37.40 225.45 39.56Q224.39 41.72 222.83 42.90Q221.26 44.07 218.91 44.67Q216.55 45.26 213.13 45.26L199.49 45.26M204.22 24.51L211.96 24.51Q215.11 24.51 216.48 24.10Q218.29 23.56 219.20 22.31Q220.12 21.07 220.12 19.19Q220.12 17.41 219.26 16.05Q218.41 14.70 216.82 14.20Q215.23 13.70 211.38 13.70L204.22 13.70L204.22 24.51M204.22 41.04L213.13 41.04Q215.43 41.04 216.36 40.87Q217.99 40.58 219.09 39.89Q220.19 39.21 220.90 37.90Q221.61 36.60 221.61 34.89Q221.61 32.89 220.58 31.41Q219.56 29.93 217.74 29.33Q215.92 28.74 212.50 28.74L204.22 28.74L204.22 41.04ZM232.50 14.53L232.50 9.47L236.89 9.47L236.89 14.53L232.50 14.53M232.50 45.26L232.50 19.34L236.89 19.34L236.89 45.26L232.50 45.26ZM243.58 45.26L243.58 19.34L247.53 19.34L247.53 23.02Q250.39 18.75 255.79 18.75Q258.13 18.75 260.10 19.59Q262.06 20.43 263.04 21.80Q264.01 23.17 264.40 25.05Q264.65 26.27 264.65 29.32L264.65 45.26L260.25 45.26L260.25 29.49Q260.25 26.81 259.74 25.48Q259.23 24.15 257.92 23.35Q256.62 22.56 254.86 22.56Q252.05 22.56 250.01 24.34Q247.97 26.12 247.97 31.10L247.97 45.26L243.58 45.26ZM270.58 47.41L274.85 48.05Q275.12 50.02 276.34 50.93Q277.98 52.15 280.81 52.15Q283.86 52.15 285.52 50.93Q287.18 49.71 287.77 47.51Q288.11 46.17 288.09 41.87Q285.21 45.26 280.91 45.26Q275.56 45.26 272.63 41.41Q269.70 37.55 269.70 32.15Q269.70 28.44 271.04 25.31Q272.39 22.17 274.94 20.46Q277.49 18.75 280.93 18.75Q285.52 18.75 288.50 22.46L288.50 19.34L292.55 19.34L292.55 41.75Q292.55 47.80 291.32 50.33Q290.09 52.86 287.41 54.32Q284.74 55.79 280.83 55.79Q276.20 55.79 273.34 53.70Q270.48 51.61 270.58 47.41M274.22 31.84Q274.22 36.94 276.25 39.28Q278.27 41.63 281.32 41.63Q284.35 41.63 286.40 39.29Q288.45 36.96 288.45 31.98Q288.45 27.22 286.34 24.80Q284.23 22.39 281.25 22.39Q278.32 22.39 276.27 24.77Q274.22 27.15 274.22 31.84ZM297.56 32.30Q297.56 25.10 301.56 21.63Q304.91 18.75 309.72 18.75Q315.06 18.75 318.46 22.25Q321.85 25.76 321.85 31.93Q321.85 36.94 320.35 39.81Q318.85 42.68 315.98 44.26Q313.11 45.85 309.72 45.85Q304.27 45.85 300.92 42.36Q297.56 38.87 297.56 32.30M302.08 32.30Q302.08 37.28 304.25 39.76Q306.42 42.24 309.72 42.24Q312.99 42.24 315.16 39.75Q317.33 37.26 317.33 32.15Q317.33 27.34 315.15 24.87Q312.96 22.39 309.72 22.39Q306.42 22.39 304.25 24.85Q302.08 27.32 302.08 32.30Z"/></g></g></svg>